<?xml version="1.0" encoding="UTF-8"?>
<!DOCTYPE svg PUBLIC "-//W3C//DTD SVG 1.1//EN" "http://www.w3.org/Graphics/SVG/1.1/DTD/svg11.dtd">
<svg xmlns="http://www.w3.org/2000/svg" version="1.1" width="500px" height="500px" style="shape-rendering:geometricPrecision; text-rendering:geometricPrecision; image-rendering:optimizeQuality; fill-rule:evenodd; clip-rule:evenodd" xmlns:xlink="http://www.w3.org/1999/xlink">
<g><path style="opacity:1" fill="#0d203b" d="M -0.5,-0.5 C 166.167,-0.5 332.833,-0.5 499.5,-0.5C 499.5,166.167 499.5,332.833 499.5,499.5C 332.833,499.5 166.167,499.5 -0.5,499.5C -0.5,332.833 -0.5,166.167 -0.5,-0.5 Z"/></g>
<g><path style="opacity:1" fill="#788392" d="M 376.5,144.5 C 324.167,144.5 271.833,144.5 219.5,144.5C 171.833,144.5 124.167,144.5 76.5,144.5C 76.5,145.833 76.5,147.167 76.5,148.5C 85.3494,148.174 94.0161,148.507 102.5,149.5C 93.5,149.5 84.5,149.5 75.5,149.5C 75.5,147.5 75.5,145.5 75.5,143.5C 176.001,143.167 276.335,143.501 376.5,144.5 Z"/></g>
<g><path style="opacity:1" fill="#4e5b6f" d="M 444.5,144.5 C 427.5,144.5 410.5,144.5 393.5,144.5C 393.5,145.833 393.5,147.167 393.5,148.5C 401.86,148.169 410.193,148.502 418.5,149.5C 418.376,150.107 418.043,150.44 417.5,150.5C 409.35,149.507 401.017,149.174 392.5,149.5C 392.5,147.5 392.5,145.5 392.5,143.5C 410.008,143.17 427.341,143.503 444.5,144.5 Z"/></g>
<g><path style="opacity:1" fill="#fcfcfd" d="M 219.5,144.5 C 220.504,145.683 221.338,147.016 222,148.5C 222.5,159.828 222.667,171.162 222.5,182.5C 222.666,188.842 222.5,195.175 222,201.5C 220.951,202.517 219.784,202.684 218.5,202C 217.854,188.259 214.021,175.425 207,163.5C 201.819,155.826 194.653,151.159 185.5,149.5C 168.008,148.503 150.341,148.17 132.5,148.5C 132.5,179.167 132.5,209.833 132.5,240.5C 142.681,240.827 152.681,240.494 162.5,239.5C 171.02,237.491 176.187,232.158 178,223.5C 178.617,218.747 179.617,214.08 181,209.5C 181.71,208.027 182.876,207.36 184.5,207.5C 184.5,230.833 184.5,254.167 184.5,277.5C 182.876,277.64 181.71,276.973 181,275.5C 180.157,266.449 177.324,258.115 172.5,250.5C 168.867,247.066 164.534,245.399 159.5,245.5C 150.682,244.507 141.682,244.173 132.5,244.5C 132.5,278.833 132.5,313.167 132.5,347.5C 141.167,347.5 149.833,347.5 158.5,347.5C 158.5,348.833 158.5,350.167 158.5,351.5C 131.5,351.5 104.5,351.5 77.5,351.5C 77.5,350.167 77.5,348.833 77.5,347.5C 85.8333,347.5 94.1667,347.5 102.5,347.5C 102.5,281.5 102.5,215.5 102.5,149.5C 94.0161,148.507 85.3494,148.174 76.5,148.5C 76.5,147.167 76.5,145.833 76.5,144.5C 124.167,144.5 171.833,144.5 219.5,144.5 Z"/></g>
<g><path style="opacity:1" fill="#9ca4af" d="M 219.5,144.5 C 271.833,144.5 324.167,144.5 376.5,144.5C 376.5,145.833 376.5,147.167 376.5,148.5C 370.242,148.19 364.076,148.524 358,149.5C 349.833,172.667 341.667,195.833 333.5,219C 343.333,247.167 353.167,275.333 363,303.5C 381.853,252.775 400.02,201.775 417.5,150.5C 418.043,150.44 418.376,150.107 418.5,149.5C 410.193,148.502 401.86,148.169 393.5,148.5C 393.5,147.167 393.5,145.833 393.5,144.5C 410.5,144.5 427.5,144.5 444.5,144.5C 444.5,145.833 444.5,147.167 444.5,148.5C 437.052,147.892 429.885,148.559 423,150.5C 399.86,216.089 377.026,281.756 354.5,347.5C 352.856,347.714 351.356,347.38 350,346.5C 339,316.167 328,285.833 317,255.5C 305.673,285.98 294.84,316.646 284.5,347.5C 283.022,347.762 281.689,347.429 280.5,346.5C 261.333,291.66 242,236.993 222.5,182.5C 222.667,171.162 222.5,159.828 222,148.5C 221.338,147.016 220.504,145.683 219.5,144.5 Z"/></g>
<g><path style="opacity:1" fill="#314158" d="M 280.5,149.5 C 266.99,149.171 253.656,149.504 240.5,150.5C 239.957,150.44 239.624,150.107 239.5,149.5C 253.328,148.174 266.994,148.174 280.5,149.5 Z"/></g>
<g><path style="opacity:1" fill="#616d7f" d="M 185.5,149.5 C 168.167,149.5 150.833,149.5 133.5,149.5C 133.5,179.5 133.5,209.5 133.5,239.5C 143.167,239.5 152.833,239.5 162.5,239.5C 152.681,240.494 142.681,240.827 132.5,240.5C 132.5,209.833 132.5,179.167 132.5,148.5C 150.341,148.17 168.008,148.503 185.5,149.5 Z"/></g>
<g><path style="opacity:1" fill="#0d203b" d="M 280.5,149.5 C 292.091,181.604 303.091,213.938 313.5,246.5C 307.501,265.664 301.001,284.664 294,303.5C 275.662,252.653 257.829,201.653 240.5,150.5C 253.656,149.504 266.99,149.171 280.5,149.5 Z"/></g>
<g><path style="opacity:1" fill="#0e213c" d="M 309.5,148.5 C 323.849,148.167 338.182,148.501 352.5,149.5C 345.333,169.833 338.167,190.167 331,210.5C 323.132,190.061 315.965,169.394 309.5,148.5 Z"/></g>
<g><path style="opacity:1" fill="#526073" d="M 159.5,245.5 C 150.833,245.5 142.167,245.5 133.5,245.5C 133.5,279.167 133.5,312.833 133.5,346.5C 142.349,346.174 151.016,346.507 159.5,347.5C 159.167,347.5 158.833,347.5 158.5,347.5C 149.833,347.5 141.167,347.5 132.5,347.5C 132.5,313.167 132.5,278.833 132.5,244.5C 141.682,244.173 150.682,244.507 159.5,245.5 Z"/></g>
<g><path style="opacity:1" fill="#c1c7ce" d="M 77.5,347.5 C 77.5,348.833 77.5,350.167 77.5,351.5C 104.5,351.5 131.5,351.5 158.5,351.5C 158.5,350.167 158.5,348.833 158.5,347.5C 158.833,347.5 159.167,347.5 159.5,347.5C 159.5,349.167 159.5,350.833 159.5,352.5C 131.833,352.5 104.167,352.5 76.5,352.5C 76.2155,350.585 76.5489,348.919 77.5,347.5 Z"/></g>
</svg>
